<mxfile host="app.diagrams.net" modified="2024-03-23T20:43:41.207Z" agent="Mozilla/5.0 (X11; Ubuntu; Linux x86_64; rv:123.0) Gecko/20100101 Firefox/123.0" etag="e83nbM1YQyUxdNHQC-gl" version="24.1.0" type="device">
  <diagram name="Page-1" id="hxiGb1CsmVP-R7jCHEUp">
    <mxGraphModel dx="1122" dy="952" grid="1" gridSize="10" guides="1" tooltips="1" connect="1" arrows="1" fold="1" page="1" pageScale="1" pageWidth="850" pageHeight="1100" math="0" shadow="0">
      <root>
        <mxCell id="0" />
        <mxCell id="1" parent="0" />
        <mxCell id="zxmauhxB-J-uq_--x_t2-1" value="" style="rounded=1;arcSize=10;dashed=0;fillColor=none;gradientColor=none;strokeWidth=2;" vertex="1" parent="1">
          <mxGeometry x="370" y="120" width="370" height="260" as="geometry" />
        </mxCell>
        <mxCell id="zxmauhxB-J-uq_--x_t2-2" value="" style="dashed=0;html=1;shape=mxgraph.aws3.cloud;fillColor=#F58536;gradientColor=none;dashed=0;" vertex="1" parent="1">
          <mxGeometry x="399" y="100" width="52" height="36" as="geometry" />
        </mxCell>
        <mxCell id="zxmauhxB-J-uq_--x_t2-23" style="edgeStyle=orthogonalEdgeStyle;rounded=0;orthogonalLoop=1;jettySize=auto;html=1;" edge="1" parent="1" source="zxmauhxB-J-uq_--x_t2-3" target="zxmauhxB-J-uq_--x_t2-15">
          <mxGeometry relative="1" as="geometry" />
        </mxCell>
        <mxCell id="zxmauhxB-J-uq_--x_t2-25" value="" style="edgeStyle=orthogonalEdgeStyle;rounded=0;orthogonalLoop=1;jettySize=auto;html=1;" edge="1" parent="1" source="zxmauhxB-J-uq_--x_t2-3" target="zxmauhxB-J-uq_--x_t2-14">
          <mxGeometry relative="1" as="geometry" />
        </mxCell>
        <mxCell id="zxmauhxB-J-uq_--x_t2-3" value="" style="outlineConnect=0;dashed=0;verticalLabelPosition=bottom;verticalAlign=top;align=center;html=1;shape=mxgraph.aws3.codebuild;fillColor=#759C3E;gradientColor=none;" vertex="1" parent="1">
          <mxGeometry x="519.25" y="267" width="76.5" height="93" as="geometry" />
        </mxCell>
        <mxCell id="zxmauhxB-J-uq_--x_t2-4" value="" style="dashed=0;outlineConnect=0;html=1;align=center;labelPosition=center;verticalLabelPosition=bottom;verticalAlign=top;shape=mxgraph.weblogos.github" vertex="1" parent="1">
          <mxGeometry x="260" y="276" width="75" height="75" as="geometry" />
        </mxCell>
        <mxCell id="zxmauhxB-J-uq_--x_t2-21" style="edgeStyle=orthogonalEdgeStyle;rounded=0;orthogonalLoop=1;jettySize=auto;html=1;" edge="1" parent="1" source="zxmauhxB-J-uq_--x_t2-5" target="zxmauhxB-J-uq_--x_t2-4">
          <mxGeometry relative="1" as="geometry" />
        </mxCell>
        <mxCell id="zxmauhxB-J-uq_--x_t2-5" value="" style="image;aspect=fixed;html=1;points=[];align=center;fontSize=12;image=img/lib/azure2/general/File.svg;" vertex="1" parent="1">
          <mxGeometry x="160" y="279" width="56.00000000000001" height="69" as="geometry" />
        </mxCell>
        <mxCell id="zxmauhxB-J-uq_--x_t2-27" style="edgeStyle=orthogonalEdgeStyle;rounded=0;orthogonalLoop=1;jettySize=auto;html=1;" edge="1" parent="1" source="zxmauhxB-J-uq_--x_t2-7">
          <mxGeometry relative="1" as="geometry">
            <mxPoint x="200" y="199" as="targetPoint" />
          </mxGeometry>
        </mxCell>
        <mxCell id="zxmauhxB-J-uq_--x_t2-7" value="" style="sketch=0;points=[[0,0,0],[0.25,0,0],[0.5,0,0],[0.75,0,0],[1,0,0],[0,1,0],[0.25,1,0],[0.5,1,0],[0.75,1,0],[1,1,0],[0,0.25,0],[0,0.5,0],[0,0.75,0],[1,0.25,0],[1,0.5,0],[1,0.75,0]];points=[[0,0,0],[0.25,0,0],[0.5,0,0],[0.75,0,0],[1,0,0],[0,1,0],[0.25,1,0],[0.5,1,0],[0.75,1,0],[1,1,0],[0,0.25,0],[0,0.5,0],[0,0.75,0],[1,0.25,0],[1,0.5,0],[1,0.75,0]];outlineConnect=0;fontColor=#232F3E;fillColor=#E7157B;strokeColor=#ffffff;dashed=0;verticalLabelPosition=bottom;verticalAlign=top;align=center;html=1;fontSize=12;fontStyle=0;aspect=fixed;shape=mxgraph.aws4.resourceIcon;resIcon=mxgraph.aws4.chatbot;" vertex="1" parent="1">
          <mxGeometry x="400" y="160" width="78" height="78" as="geometry" />
        </mxCell>
        <mxCell id="zxmauhxB-J-uq_--x_t2-26" value="" style="edgeStyle=orthogonalEdgeStyle;rounded=0;orthogonalLoop=1;jettySize=auto;html=1;" edge="1" parent="1" source="zxmauhxB-J-uq_--x_t2-14" target="zxmauhxB-J-uq_--x_t2-7">
          <mxGeometry relative="1" as="geometry" />
        </mxCell>
        <mxCell id="zxmauhxB-J-uq_--x_t2-14" value="" style="sketch=0;points=[[0,0,0],[0.25,0,0],[0.5,0,0],[0.75,0,0],[1,0,0],[0,1,0],[0.25,1,0],[0.5,1,0],[0.75,1,0],[1,1,0],[0,0.25,0],[0,0.5,0],[0,0.75,0],[1,0.25,0],[1,0.5,0],[1,0.75,0]];outlineConnect=0;fontColor=#232F3E;fillColor=#E7157B;strokeColor=#ffffff;dashed=0;verticalLabelPosition=bottom;verticalAlign=top;align=center;html=1;fontSize=12;fontStyle=0;aspect=fixed;shape=mxgraph.aws4.resourceIcon;resIcon=mxgraph.aws4.sns;" vertex="1" parent="1">
          <mxGeometry x="519.25" y="160" width="78" height="78" as="geometry" />
        </mxCell>
        <mxCell id="zxmauhxB-J-uq_--x_t2-24" value="" style="edgeStyle=orthogonalEdgeStyle;rounded=0;orthogonalLoop=1;jettySize=auto;html=1;" edge="1" parent="1" source="zxmauhxB-J-uq_--x_t2-15" target="zxmauhxB-J-uq_--x_t2-16">
          <mxGeometry relative="1" as="geometry" />
        </mxCell>
        <mxCell id="zxmauhxB-J-uq_--x_t2-15" value="" style="sketch=0;points=[[0,0,0],[0.25,0,0],[0.5,0,0],[0.75,0,0],[1,0,0],[0,1,0],[0.25,1,0],[0.5,1,0],[0.75,1,0],[1,1,0],[0,0.25,0],[0,0.5,0],[0,0.75,0],[1,0.25,0],[1,0.5,0],[1,0.75,0]];points=[[0,0,0],[0.25,0,0],[0.5,0,0],[0.75,0,0],[1,0,0],[0,1,0],[0.25,1,0],[0.5,1,0],[0.75,1,0],[1,1,0],[0,0.25,0],[0,0.5,0],[0,0.75,0],[1,0.25,0],[1,0.5,0],[1,0.75,0]];outlineConnect=0;fontColor=#232F3E;fillColor=#E7157B;strokeColor=#ffffff;dashed=0;verticalLabelPosition=bottom;verticalAlign=top;align=center;html=1;fontSize=12;fontStyle=0;aspect=fixed;shape=mxgraph.aws4.resourceIcon;resIcon=mxgraph.aws4.cloudwatch_2;" vertex="1" parent="1">
          <mxGeometry x="640" y="274.5" width="78" height="78" as="geometry" />
        </mxCell>
        <mxCell id="zxmauhxB-J-uq_--x_t2-16" value="" style="sketch=0;points=[[0,0,0],[0.25,0,0],[0.5,0,0],[0.75,0,0],[1,0,0],[0,1,0],[0.25,1,0],[0.5,1,0],[0.75,1,0],[1,1,0],[0,0.25,0],[0,0.5,0],[0,0.75,0],[1,0.25,0],[1,0.5,0],[1,0.75,0]];outlineConnect=0;fontColor=#232F3E;fillColor=#7AA116;strokeColor=#ffffff;dashed=0;verticalLabelPosition=bottom;verticalAlign=top;align=center;html=1;fontSize=12;fontStyle=0;aspect=fixed;shape=mxgraph.aws4.resourceIcon;resIcon=mxgraph.aws4.s3;" vertex="1" parent="1">
          <mxGeometry x="640" y="160" width="78" height="78" as="geometry" />
        </mxCell>
        <mxCell id="zxmauhxB-J-uq_--x_t2-19" value="" style="image;sketch=0;aspect=fixed;html=1;points=[];align=center;fontSize=12;image=img/lib/mscae/Person.svg;" vertex="1" parent="1">
          <mxGeometry x="160" y="160" width="37" height="50" as="geometry" />
        </mxCell>
        <mxCell id="zxmauhxB-J-uq_--x_t2-20" style="edgeStyle=orthogonalEdgeStyle;rounded=0;orthogonalLoop=1;jettySize=auto;html=1;entryX=0.33;entryY=0.014;entryDx=0;entryDy=0;entryPerimeter=0;" edge="1" parent="1" source="zxmauhxB-J-uq_--x_t2-19" target="zxmauhxB-J-uq_--x_t2-5">
          <mxGeometry relative="1" as="geometry" />
        </mxCell>
        <mxCell id="zxmauhxB-J-uq_--x_t2-22" style="edgeStyle=orthogonalEdgeStyle;rounded=0;orthogonalLoop=1;jettySize=auto;html=1;entryX=0;entryY=0.5;entryDx=0;entryDy=0;entryPerimeter=0;" edge="1" parent="1" source="zxmauhxB-J-uq_--x_t2-4" target="zxmauhxB-J-uq_--x_t2-3">
          <mxGeometry relative="1" as="geometry" />
        </mxCell>
      </root>
    </mxGraphModel>
  </diagram>
</mxfile>
